# xmcd
#
# Track frame offsets:
#	150
#	8769
#	18422
#	29910
#	43360
#	56721
#	66135
#	79254
#	89075
#	103330
#
# Disc length: 1524 seconds
# Revision: 0
# Processed by: cddbd v1.5.2PL0 Copyright (c) Steve Scherf et al.
# Submitted via: dBpowerAMP V12.0
#
DISCID=8f05f20a
DTITLE=Lévis Bouliane - Réveillon de Noël (titre original: Réveillon Chez Lévis Bouliane et les Blue Stars)
DYEAR=1962
DGENRE=Noel
TTITLE0=Danser autour du sapin vert
TTITLE1=Le twist des fêtes
TTITLE2=Le reel du Tennessee
TTITLE3=Noël dans mon église
TTITLE4=Valse du réveillon
TTITLE5=Pere Noël veux-tu danser?
TTITLE6=Un Noël près de toi
TTITLE7=Reel Jingle Bells
TTITLE8=Un orphelin à Noël
TTITLE9=Je ne crois plus au Père Noël 
EXTD=
EXTT0=
EXTT1=
EXTT2=
EXTT3=
EXTT4=
EXTT5=
EXTT6=
EXTT7=
EXTT8=
EXTT9=
PLAYORDER=
